<svg width="188" height="32" viewBox="0 0 188 32" fill="none" xmlns="http://www.w3.org/2000/svg">
<path d="M10.569 31L0.078 3.7H7.332L14.547 24.019L21.879 3.7H28.86L18.213 31H10.569ZM31.4023 31V10.876H37.7203V31H31.4023ZM34.5613 7.795C33.5993 7.795 32.7673 7.444 32.0653 6.742C31.3633 6.04 31.0123 5.208 31.0123 4.246C31.0123 3.258 31.3633 2.426 32.0653 1.75C32.7673 1.048 33.5993 0.697 34.5613 0.697C35.5493 0.697 36.3813 1.048 37.0573 1.75C37.7593 2.426 38.1103 3.258 38.1103 4.246C38.1103 5.208 37.7593 6.04 37.0573 6.742C36.3813 7.444 35.5493 7.795 34.5613 7.795ZM41.5847 31V26.593L50.5937 16.102L41.6627 16.18V10.876H58.3547V15.283L49.3067 25.813L58.6667 25.735V31H41.5847ZM71.6582 31.39C69.6822 31.39 67.8882 30.935 66.2762 30.025C64.6902 29.089 63.4162 27.841 62.4542 26.281C61.5182 24.695 61.0502 22.927 61.0502 20.977C61.0502 19.001 61.4922 17.233 62.3762 15.673C63.2602 14.113 64.4692 12.878 66.0032 11.968C67.5372 11.032 69.2662 10.564 71.1902 10.564C73.1402 10.564 74.8562 11.019 76.3382 11.929C77.8202 12.839 78.9772 14.1 79.8092 15.712C80.6672 17.298 81.0962 19.131 81.0962 21.211V22.576H67.2512C67.4592 23.33 67.7842 23.993 68.2262 24.565C68.6682 25.137 69.2142 25.579 69.8642 25.891C70.5142 26.203 71.2162 26.359 71.9702 26.359C72.8022 26.359 73.5562 26.216 74.2322 25.93C74.9342 25.644 75.5062 25.228 75.9482 24.682L80.1212 28.153C78.8212 29.297 77.5082 30.129 76.1822 30.649C74.8562 31.143 73.3482 31.39 71.6582 31.39ZM67.2512 18.988H75.2462C75.0642 18.26 74.7782 17.636 74.3882 17.116C73.9982 16.596 73.5302 16.193 72.9842 15.907C72.4382 15.621 71.8272 15.478 71.1512 15.478C70.5012 15.478 69.9032 15.621 69.3572 15.907C68.8372 16.167 68.3952 16.557 68.0312 17.077C67.6932 17.597 67.4332 18.234 67.2512 18.988ZM95.1283 31.429C92.9703 31.429 90.9163 31.078 88.9663 30.376C87.0163 29.674 85.1313 28.647 83.3113 27.295L86.7433 22.342C88.6413 23.668 90.2533 24.604 91.5793 25.15C92.9053 25.696 94.2443 25.969 95.5963 25.969C96.5583 25.969 97.3773 25.852 98.0533 25.618C98.7553 25.358 99.2883 25.02 99.6523 24.604C100.042 24.162 100.237 23.655 100.237 23.083C100.237 22.277 99.9643 21.666 99.4183 21.25C98.8983 20.808 97.9753 20.47 96.6493 20.236L90.8383 19.222C88.6803 18.858 87.0163 18.026 85.8463 16.726C84.7023 15.426 84.1303 13.814 84.1303 11.89C84.1303 10.122 84.5593 8.601 85.4173 7.327C86.2753 6.027 87.5103 5.026 89.1223 4.324C90.7603 3.622 92.7103 3.271 94.9723 3.271C97.0783 3.271 99.1193 3.596 101.095 4.246C103.071 4.87 104.761 5.741 106.165 6.859L102.772 11.734C101.446 10.72 100.12 9.966 98.7943 9.472C97.4683 8.978 96.0773 8.731 94.6213 8.731C93.7373 8.731 92.9833 8.848 92.3593 9.082C91.7353 9.29 91.2543 9.589 90.9163 9.979C90.6043 10.369 90.4483 10.811 90.4483 11.305C90.4483 12.007 90.6823 12.553 91.1503 12.943C91.6443 13.307 92.4373 13.593 93.5293 13.801L98.9893 14.737C101.537 15.153 103.474 16.024 104.8 17.35C106.126 18.676 106.789 20.379 106.789 22.459C106.789 24.227 106.308 25.787 105.346 27.139C104.41 28.491 103.071 29.544 101.329 30.298C99.5873 31.052 97.5203 31.429 95.1283 31.429ZM119.879 31.39C117.513 31.39 115.719 30.844 114.497 29.752C113.275 28.66 112.664 27.048 112.664 24.916V15.751H108.764V10.876H112.664V5.299L118.982 4.012V10.876H124.364V15.751H118.982V23.668C118.982 24.552 119.177 25.176 119.567 25.54C119.983 25.904 120.672 26.086 121.634 26.086C121.998 26.086 122.362 26.06 122.726 26.008C123.09 25.956 123.584 25.839 124.208 25.657V30.766C123.636 30.948 122.934 31.091 122.102 31.195C121.27 31.325 120.529 31.39 119.879 31.39ZM137.317 31.39C135.315 31.39 133.521 30.935 131.935 30.025C130.349 29.115 129.088 27.88 128.152 26.32C127.242 24.734 126.787 22.953 126.787 20.977C126.787 19.001 127.242 17.233 128.152 15.673C129.088 14.087 130.349 12.839 131.935 11.929C133.521 11.019 135.302 10.564 137.278 10.564C139.28 10.564 141.061 11.019 142.621 11.929C144.207 12.839 145.455 14.087 146.365 15.673C147.301 17.233 147.769 19.001 147.769 20.977C147.769 22.953 147.301 24.734 146.365 26.32C145.455 27.88 144.207 29.115 142.621 30.025C141.061 30.935 139.293 31.39 137.317 31.39ZM137.278 26.125C138.136 26.125 138.89 25.904 139.54 25.462C140.19 25.02 140.697 24.409 141.061 23.629C141.425 22.849 141.607 21.965 141.607 20.977C141.607 19.963 141.425 19.079 141.061 18.325C140.697 17.545 140.19 16.934 139.54 16.492C138.89 16.05 138.136 15.829 137.278 15.829C136.446 15.829 135.692 16.05 135.016 16.492C134.366 16.934 133.859 17.545 133.495 18.325C133.131 19.079 132.949 19.963 132.949 20.977C132.949 21.965 133.131 22.849 133.495 23.629C133.859 24.409 134.366 25.02 135.016 25.462C135.692 25.904 136.446 26.125 137.278 26.125ZM151.792 31V10.876H158.11V15.439C158.76 13.749 159.527 12.501 160.411 11.695C161.321 10.889 162.374 10.486 163.57 10.486C164.012 10.512 164.376 10.551 164.662 10.603C164.948 10.655 165.286 10.785 165.676 10.993V16.414C165.286 16.206 164.831 16.05 164.311 15.946C163.791 15.842 163.258 15.79 162.712 15.79C161.776 15.79 160.905 16.024 160.099 16.492C159.293 16.934 158.63 17.532 158.11 18.286V31H151.792ZM178.147 31.39C176.171 31.39 174.377 30.935 172.765 30.025C171.179 29.089 169.905 27.841 168.943 26.281C168.007 24.695 167.539 22.927 167.539 20.977C167.539 19.001 167.981 17.233 168.865 15.673C169.749 14.113 170.958 12.878 172.492 11.968C174.026 11.032 175.755 10.564 177.679 10.564C179.629 10.564 181.345 11.019 182.827 11.929C184.309 12.839 185.466 14.1 186.298 15.712C187.156 17.298 187.585 19.131 187.585 21.211V22.576H173.74C173.948 23.33 174.273 23.993 174.715 24.565C175.157 25.137 175.703 25.579 176.353 25.891C177.003 26.203 177.705 26.359 178.459 26.359C179.291 26.359 180.045 26.216 180.721 25.93C181.423 25.644 181.995 25.228 182.437 24.682L186.61 28.153C185.31 29.297 183.997 30.129 182.671 30.649C181.345 31.143 179.837 31.39 178.147 31.39ZM173.74 18.988H181.735C181.553 18.26 181.267 17.636 180.877 17.116C180.487 16.596 180.019 16.193 179.473 15.907C178.927 15.621 178.316 15.478 177.64 15.478C176.99 15.478 176.392 15.621 175.846 15.907C175.326 16.167 174.884 16.557 174.52 17.077C174.182 17.597 173.922 18.234 173.74 18.988Z" fill="black"/>
</svg>
