<svg width="173" height="122" viewBox="0 0 173 122" fill="none" xmlns="http://www.w3.org/2000/svg">
<g clip-path="url(#clip0_16_31)">
<path d="M0 121.661C0 121.819 0.125316 121.945 0.28137 121.945H172.719C172.875 121.945 173 121.819 173 121.661C173 121.504 172.875 121.377 172.719 121.377H0.28137C0.125316 121.377 0 121.504 0 121.661Z" fill="#3F3D58"/>
<path d="M104.18 18.8844L110.236 20.8942V12.0935H104.741L104.18 18.8844Z" fill="#F8A8AB"/>
<path d="M109.486 14.5282C112.819 14.5282 115.52 11.801 115.52 8.43675C115.52 5.07253 112.819 2.34529 109.486 2.34529C106.154 2.34529 103.452 5.07253 103.452 8.43675C103.452 11.801 106.154 14.5282 109.486 14.5282Z" fill="#F8A8AB"/>
<path d="M107.949 8.91414L108.781 9.93336L110.285 7.27431C110.285 7.27431 112.205 7.37456 112.205 5.93524C112.205 4.49592 113.967 4.45534 113.967 4.45534C113.967 4.45534 116.461 0.0586048 111.295 1.21627C111.295 1.21627 107.71 -1.26137 105.93 0.855841C105.93 0.855841 100.466 3.63423 102.029 8.47017L104.627 13.4565L105.216 12.3275C105.216 12.3275 104.859 7.58939 107.949 8.90936L107.949 8.91414Z" fill="#2F2E43"/>
<path d="M107.315 110.223H102.364V117.314H107.315V110.223Z" fill="#F8A8AB"/>
<path d="M106.767 121.377C105.92 121.453 101.683 121.792 101.471 120.811C101.277 119.911 101.563 118.971 101.603 118.842C102.01 114.751 102.161 114.706 102.253 114.679C102.397 114.636 102.818 114.839 103.502 115.283L103.544 115.312L103.554 115.362C103.565 115.426 103.868 116.928 105.303 116.696C106.287 116.539 106.606 116.319 106.708 116.212C106.625 116.173 106.521 116.107 106.448 115.992C106.341 115.825 106.322 115.61 106.393 115.352C106.578 114.672 107.131 113.667 107.155 113.627L107.219 113.512L112.846 117.345L116.322 118.348C116.584 118.424 116.795 118.613 116.901 118.866C117.048 119.219 116.958 119.63 116.674 119.888C116.043 120.46 114.79 121.441 113.473 121.563C113.123 121.597 112.659 121.609 112.139 121.609C109.966 121.609 106.793 121.382 106.769 121.377L106.767 121.377Z" fill="#2F2E43"/>
<path d="M113.638 49.0839L100.65 48.4132C100.65 48.4132 98.6592 56.0323 101.175 63.9712L101.478 111.779H108.817L115.735 62.4627L113.638 49.0839Z" fill="#2F2E43"/>
<path d="M111.449 17.192L104.32 13.3729C104.32 13.3729 96.6376 24.7061 97.6992 30.8453C98.7632 36.9845 100.65 48.4132 100.65 48.4132L116.376 49.0839L113.631 26.5775L111.449 17.192Z" fill="#E2E3E4"/>
<path d="M110.838 110.223H105.887V117.314H110.838V110.223Z" fill="#F8A8AB"/>
<path d="M110.29 121.377C109.443 121.453 105.206 121.792 104.994 120.811C104.8 119.911 105.086 118.971 105.126 118.842C105.533 114.751 105.684 114.706 105.776 114.679C105.92 114.636 106.341 114.839 107.025 115.283L107.067 115.312L107.077 115.362C107.088 115.426 107.391 116.928 108.826 116.696C109.81 116.539 110.129 116.319 110.231 116.212C110.148 116.173 110.044 116.107 109.971 115.992C109.864 115.825 109.845 115.61 109.916 115.352C110.101 114.672 110.654 113.667 110.678 113.627L110.742 113.512L116.369 117.345L119.845 118.348C120.107 118.424 120.318 118.613 120.424 118.866C120.571 119.219 120.481 119.63 120.197 119.888C119.566 120.46 118.313 121.441 116.996 121.563C116.646 121.597 116.182 121.609 115.662 121.609C113.489 121.609 110.316 121.382 110.292 121.377L110.29 121.377Z" fill="#2F2E43"/>
<path d="M116.376 49.0839L100.65 48.4132C100.65 48.4132 98.6592 56.0323 101.175 63.9712L104.216 111.779H111.555L118.473 62.4627L116.376 49.0839Z" fill="#2F2E43"/>
<path d="M114.735 80.3098C113.636 80.3098 112.437 80.0377 111.252 79.7703C110.375 79.5722 109.602 79.5221 108.982 79.4839C108.041 79.4242 107.297 79.3765 106.883 78.8203C106.474 78.2713 106.474 77.338 106.883 75.4977C107.427 73.0535 108.637 69.1485 110.117 65.9356C112.03 61.7919 113.867 59.8848 115.582 60.2738C117.877 60.7942 118.793 64.6634 119.135 66.9215C119.613 70.0746 119.57 73.8221 119.031 76.2472C118.317 79.4576 116.679 80.3074 114.733 80.3074L114.735 80.3098ZM115.154 60.9446C113.893 60.9446 112.347 62.8016 110.763 66.2388C109.304 69.4015 108.112 73.2468 107.576 75.6553C107.233 77.202 107.195 78.0446 107.45 78.3907C107.668 78.6819 108.238 78.7201 109.025 78.7678C109.67 78.8084 110.474 78.8585 111.406 79.071C115.109 79.9088 117.424 80.2143 118.339 76.0921C119.32 71.6762 118.573 61.6869 115.426 60.9732C115.336 60.9517 115.243 60.9422 115.151 60.9422L115.154 60.9446Z" fill="#DFDFE0"/>
<path d="M129.709 109.991L94.4434 110.225L88.965 107.681L92.157 74.8103L95.3679 74.975L128.406 76.6721L129.709 109.991Z" fill="#F28705"/>
<path opacity="0.2" d="M94.4434 110.225L88.965 107.681L92.157 74.8103L95.3679 74.975L94.4434 110.225Z" fill="#272223"/>
<path d="M115.267 74.247C114.612 74.247 113.896 74.0846 113.191 73.9247C112.669 73.8054 112.208 73.7767 111.836 73.7529C111.276 73.7171 110.831 73.6884 110.585 73.3566C110.342 73.0296 110.342 72.4735 110.585 71.3755C110.909 69.9171 111.631 67.5898 112.515 65.6755C113.655 63.205 114.752 62.0688 115.773 62.3003C117.142 62.6106 117.688 64.9164 117.892 66.265C118.175 68.1459 118.152 70.3801 117.83 71.8242C117.405 73.7385 116.428 74.2446 115.267 74.2446L115.267 74.247ZM115.518 62.7013C114.766 62.7013 113.844 63.8089 112.9 65.8593C112.03 67.7449 111.318 70.0364 111.002 71.4733C110.796 72.3947 110.775 72.8983 110.928 73.1036C111.058 73.2779 111.396 73.2993 111.867 73.328C112.252 73.3519 112.73 73.3829 113.286 73.5094C115.492 74.0083 116.873 74.1897 117.419 71.7335C118.003 69.1007 117.558 63.1453 115.683 62.7204C115.629 62.7085 115.574 62.7013 115.52 62.7013H115.518Z" fill="#DFDFE0"/>
<path d="M124.193 91.9461L103.168 92.0845L99.9006 90.5688L101.804 70.9697L103.719 71.0676L123.417 72.0796L124.193 91.9461Z" fill="#E2E3E4"/>
<path opacity="0.2" d="M103.168 92.0845L99.9006 90.5688L101.804 70.9697L103.719 71.0676L103.168 92.0845Z" fill="#272223"/>
<path d="M116.497 61.0186C116.849 62.7658 116.203 64.3627 115.059 64.5846C113.915 64.8066 112.702 63.5678 112.352 61.8206C112.203 61.1236 112.226 60.4027 112.42 59.7153L111.028 52.2895L114.626 51.7143L115.617 59.0947C116.064 59.658 116.364 60.3168 116.497 61.0186Z" fill="#F8A8AB"/>
<path d="M102.381 17.0536C102.381 17.0536 107.644 16.3805 108.273 17.9678C108.902 19.5551 116.293 57.3379 116.293 57.3379H111.418L102.381 17.0536Z" fill="#E2E3E4"/>
<path d="M65.8122 25.1405L60.5253 26.8949V19.2138H65.3227L65.8122 25.1405Z" fill="#F8A8AB"/>
<path d="M61.1802 21.3405C64.0897 21.3405 66.4482 18.9595 66.4482 16.0224C66.4482 13.0853 64.0897 10.7043 61.1802 10.7043C58.2708 10.7043 55.9122 13.0853 55.9122 16.0224C55.9122 18.9595 58.2708 21.3405 61.1802 21.3405Z" fill="#F8A8AB"/>
<path d="M62.6273 15.4949C61.7453 15.4687 61.1661 14.5688 60.8232 13.7477C60.4804 12.9266 60.1281 11.9837 59.31 11.6448C58.6408 11.3679 57.461 13.2417 56.9337 12.7428C56.3828 12.2224 56.9195 9.55145 57.5035 9.07168C58.0875 8.5919 58.8867 8.49881 59.6386 8.46301C61.4734 8.37708 63.3201 8.52745 65.1194 8.90698C66.2331 9.1409 67.3775 9.49416 68.1814 10.3057C69.1981 11.3369 69.4582 12.8908 69.5315 14.3444C69.6072 15.8315 69.522 17.3878 68.8056 18.6886C68.0892 19.9895 66.5901 20.9491 65.1525 20.6173C65.0083 19.8296 65.1549 19.0204 65.2116 18.2184C65.266 17.4188 65.2093 16.5547 64.7246 15.9174C64.2398 15.2801 63.2066 15.0271 62.6438 15.5928" fill="#2F2E43"/>
<path d="M69.1083 17.3376C69.6356 16.9486 70.2669 16.6216 70.9147 16.7027C71.6146 16.7886 72.2081 17.371 72.3878 18.0609C72.5675 18.7507 72.3665 19.5097 71.9314 20.0731C71.4988 20.6364 70.8533 21.0087 70.1723 21.1949C69.7774 21.3023 69.3447 21.3477 68.9688 21.1854C68.4155 20.9443 68.1152 20.2306 68.3327 19.6625" fill="#2F2E43"/>
<path d="M64.0673 110.617H59.1161V117.708H64.0673V110.617Z" fill="#F8A8AB"/>
<path d="M54.2926 122C53.7724 122 53.309 121.988 52.9591 121.955C51.6444 121.833 50.3889 120.852 49.7576 120.279C49.4739 120.021 49.384 119.611 49.5306 119.257C49.637 119.004 49.8474 118.813 50.1099 118.739L53.5857 117.737L59.213 113.904L59.2769 114.018C59.3005 114.061 59.8538 115.066 60.0382 115.744C60.1092 116.002 60.0903 116.216 59.9839 116.384C59.9106 116.498 59.8065 116.565 59.7238 116.603C59.8254 116.711 60.1446 116.93 61.1283 117.088C62.5635 117.317 62.8661 115.815 62.878 115.753L62.8874 115.703L62.93 115.675C63.6133 115.231 64.0342 115.028 64.1784 115.071C64.2683 115.097 64.4196 115.145 64.8286 119.234C64.8688 119.362 65.1549 120.303 64.961 121.203C64.7506 122.181 60.5135 121.845 59.6647 121.768C59.641 121.771 56.4679 122 54.295 122L54.2926 122Z" fill="#2F2E43"/>
<path d="M78.1644 105.043L73.9633 107.688L77.6806 113.705L81.8817 111.06L78.1644 105.043Z" fill="#F8A8AB"/>
<path d="M72.584 121.029C72.0024 121.029 71.468 120.957 71.0873 120.89C70.7137 120.823 70.4205 120.522 70.3591 120.145C70.3165 119.873 70.3945 119.599 70.579 119.396L73.0025 116.689L75.7689 110.431L75.8824 110.493C75.925 110.516 76.9204 111.073 77.4335 111.55C77.6298 111.731 77.7267 111.925 77.722 112.123C77.7196 112.261 77.6676 112.371 77.6156 112.45C77.7574 112.488 78.1428 112.502 79.0602 112.111C80.3985 111.54 79.8689 110.104 79.8452 110.044L79.8263 109.996L79.8476 109.951C80.1952 109.208 80.4435 108.812 80.5901 108.772C80.6823 108.745 80.8336 108.705 83.3234 111.958C83.425 112.044 84.1604 112.691 84.4678 113.557C84.8011 114.5 81.0298 116.479 80.2709 116.866C80.2472 116.885 76.3009 119.78 74.6789 120.604C74.0358 120.931 73.2744 121.031 72.5817 121.031L72.584 121.029Z" fill="#2F2E43"/>
<path d="M67.7132 51.3133H53.8504L52.5925 64.3316L58.097 112.433H65.1738L62.3435 84.6516L73.823 109.734L80.1124 105.289L71.1488 81.8732C71.1488 81.8732 74.3502 61.4745 71.8344 56.3927C69.3187 51.3109 67.7132 51.3133 67.7132 51.3133Z" fill="#2F2E43"/>
<path d="M74.608 52.1057H52.5925L59.1965 23.3718H68.789L74.608 52.1057Z" fill="#F28705"/>
<path d="M47.1236 22.8061C46.7713 21.0589 47.4168 19.462 48.5612 19.24C49.7056 19.018 50.9185 20.2569 51.2685 22.0041C51.4174 22.7011 51.3938 23.4219 51.1999 24.1094L52.5926 31.5351L48.9939 32.1104L48.0032 24.73C47.5563 24.1667 47.256 23.5079 47.1236 22.8061Z" fill="#F8A8AB"/>
<path d="M68.555 23.3718H60.0949L54.3919 34.8864L52.2402 26.2576L47.5137 26.7636C47.5137 26.7636 48.6321 43.6226 53.5194 43.0521C58.4067 42.4816 69.8057 27.2935 68.5526 23.3694L68.555 23.3718Z" fill="#F28705"/>
<path d="M76.5445 77.9873C75.8895 77.9873 75.1731 77.825 74.4685 77.6651C73.9459 77.5457 73.4848 77.5171 73.1136 77.4932C72.5533 77.4574 72.1087 77.4288 71.8628 77.097C71.6193 76.77 71.6193 76.2138 71.8628 75.1158C72.1868 73.6574 72.9079 71.3301 73.7922 69.4158C74.9319 66.9453 76.029 65.8091 77.0504 66.0407C78.4195 66.351 78.9657 68.6568 79.169 70.0054C79.4527 71.8863 79.4291 74.1204 79.1075 75.5645C78.6819 77.4789 77.7054 77.9849 76.5444 77.9849L76.5445 77.9873ZM76.7951 66.4417C76.0432 66.4417 75.1211 67.5492 74.1776 69.5996C73.3075 71.4853 72.5958 73.7767 72.279 75.2137C72.0733 76.135 72.052 76.6387 72.2057 76.844C72.3357 77.0182 72.6738 77.0397 73.1444 77.0683C73.5298 77.0922 74.0074 77.1232 74.563 77.2497C76.7691 77.7486 78.1499 77.93 78.6961 75.4739C79.2801 72.8411 78.8356 66.8857 76.9606 66.4608C76.9062 66.4488 76.8518 66.4417 76.7975 66.4417H76.7951Z" fill="#DFDFE0"/>
<path d="M85.4726 95.684L64.4479 95.8225L61.1802 94.3068L63.0836 74.7076L64.9988 74.8055L84.6971 75.8176L85.4726 95.684Z" fill="#E2E3E4"/>
<path opacity="0.2" d="M64.4479 95.8225L61.1802 94.3068L63.0836 74.7076L64.9988 74.8055L64.4479 95.8225Z" fill="#272223"/>
<path d="M78.001 67.1601C78.3533 68.9074 77.7078 70.5042 76.5634 70.7262C75.419 70.9482 74.206 69.7094 73.8561 67.9622C73.7071 67.2652 73.7308 66.5443 73.9246 65.8569L72.532 58.4311L76.1307 57.8559L77.1214 65.2363C77.5683 65.7996 77.8686 66.4584 78.001 67.1601Z" fill="#F8A8AB"/>
<path d="M63.7315 23.3718C63.7315 23.3718 68.5384 23.1665 68.7891 23.3718C70.1013 24.4531 77.7976 63.4819 77.7976 63.4819H72.9221L63.7315 23.3718Z" fill="#F28705"/>
</g>
<defs>
<clipPath id="clip0_16_31">
<rect width="173" height="122" fill="white"/>
</clipPath>
</defs>
</svg>
